# xmcd CD database file
#
# Track frame offsets:
#	150
#	18917
#	26230
#	39755
#	52325
#	68430
#	90810
#	132465
#	147772
#	155152
#
# Disc length: 2370 seconds
#
# Revision: 0
# Processed by: cddbd v1.5PL3 Copyright (c) Steve Scherf et al.
# Submitted via: CDex 1.50beta8a
#
DISCID=7e09400a
DTITLE=THE ROOSTERS - INSANE
DYEAR=1900
DGENRE=Rock
TTITLE0=LET'S ROCK (Dan Dan)
TTITLE1=WE WANNA GET EVERYTHING
TTITLE2=BABY SITTER
TTITLE3=ALL NIGHT LONG
TTITLE4=FLASH BACK
TTITLE5=CASE OF INSANITY
TTITLE6=IN DEEP GRIEF
TTITLE7=LET'S ROCK (Japanese Version)
TTITLE8=GET EVERYTHING (Japanese Version)
TTITLE9=CASE OF INSANITY (Live)
EXTD=
EXTT0=
EXTT1=
EXTT2=
EXTT3=
EXTT4=
EXTT5=
EXTT6=
EXTT7=
EXTT8=
EXTT9=
PLAYORDER=
